<svg xmlns="http://www.w3.org/2000/svg" height="800" width="1200" viewBox="-49.3449 -82.2375 427.6558 493.425"><path fill="#9f5cff" stroke="#000" stroke-width="10" d="M59.608 44.345a158.318 158.318 0 00-15.263 15.252l27.013 53.62a107.153 107.153 0 00-8.964 21.64L5.379 153.67a158.45 158.45 0 00-.021 21.589l57.044 18.821a107.354 107.354 0 003.879 11.078c1.516 3.66 3.226 7.18 5.09 10.575L44.344 269.38a158.51 158.51 0 0015.27 15.222l53.618-27.013a107.217 107.217 0 0021.64 8.964l18.814 57.015c7.136.492 14.34.52 21.56.033l18.821-57.045a107.36 107.36 0 0011.107-3.89c3.66-1.516 7.18-3.227 10.575-5.091l53.646 27.028a158.89 158.89 0 0015.222-15.268l-27.013-53.62a107.218 107.218 0 008.963-21.64l57.016-18.813c.49-7.135.52-14.341.033-21.56l-57.045-18.821a107.194 107.194 0 00-3.878-11.078 107.371 107.371 0 00-5.103-10.605l27.028-53.645a158.49 158.49 0 00-15.27-15.223l-53.619 27.013a107.15 107.15 0 00-21.64-8.964L175.276 5.364a158.705 158.705 0 00-21.577.008l-18.805 57.004a107.2 107.2 0 00-11.077 3.878 107.375 107.375 0 00-10.605 5.103zm76.5 55.175c.418-.183.846-.35 1.27-.526 36.14-14.97 77.604 2.229 92.574 38.37 14.97 36.14-2.2 77.591-38.34 92.56-36.141 14.97-77.621-2.187-92.591-38.327-14.795-35.717 1.81-76.673 37.087-92.077z"/><path fill="#9f5cff" d="M230.62 189.927c-6.733 17.471-20.34 32.271-39 40-.66.274-1.335.529-2 .781l12.47 33.188c1.028-.388 2.07-.796 3.093-1.219 3.66-1.516 7.167-3.23 10.562-5.094l53.657 27.031c5.442-4.755 10.526-9.895 15.218-15.28l-27.03-53.626a107.1 107.1 0 006.187-13.312z"/><path fill="#00f" d="M261.308 120.583l-32.281 14.625c.322.713.636 1.429.937 2.156 7.809 18.852 6.874 39.146-.937 56.375l32.25 14.625a106.92 106.92 0 005.28-14.28l57.032-18.813c.491-7.135.519-14.344.031-21.563l-57.062-18.844a106.915 106.915 0 00-3.875-11.062c-.449-1.083-.894-2.16-1.375-3.219z"/><path fill="#ffa2e6" d="M135.152 228.958l-14.657 32.281a107.255 107.255 0 0014.375 5.313l18.813 57c7.136.492 14.342.549 21.562.062l18.813-57.062c3.726-1.084 7.457-2.356 11.125-3.875 1.114-.462 2.193-.972 3.281-1.469l-14.625-32.25c-.733.333-1.469.658-2.219.969-18.873 7.817-39.219 6.865-56.468-.969z"/><path fill="red" d="M98.339 189.927l-33.156 12.469c.35.92.715 1.835 1.094 2.75 1.516 3.66 3.23 7.198 5.093 10.593l-27.03 53.625a158.943 158.943 0 0015.28 15.25l53.625-27.03a106.915 106.915 0 0013.625 6.28l12.5-33.156c-17.633-6.682-32.562-20.34-40.343-39.125-.231-.558-.472-1.096-.688-1.656z"/><path fill="#fa0" d="M67.402 121.177a107.378 107.378 0 00-5 13.687L5.37 153.677a158.532 158.532 0 000 21.594l57.032 18.812a107.083 107.083 0 003.875 11.063c.479 1.156.983 2.308 1.5 3.437l32.28-14.625a72.654 72.654 0 01-1.03-2.375c-7.715-18.626-6.902-38.673.656-55.781z"/><path fill="#ff0" d="M59.62 44.333c-5.458 4.767-10.576 9.849-15.28 15.25l27.03 53.625a107.427 107.427 0 00-6.312 13.625l33.187 12.5c6.54-17.231 19.749-31.897 37.875-39.812a70.46 70.46 0 011.25-.532 75.65 75.65 0 012.25-.875l-12.468-33.187c-1.12.418-2.23.851-3.344 1.312-3.668 1.52-7.193 3.257-10.594 5.125z"/><path fill="#0ff" d="M269.339 44.333l-53.625 27a106.902 106.902 0 00-13.281-6.156l-12.469 33.156c17.473 6.741 32.272 20.374 40 39.031.351.848.684 1.71 1 2.563l33.156-12.5a102.55 102.55 0 00-1.437-3.625 107.133 107.133 0 00-5.094-10.594l27.031-53.656c-4.76-5.45-9.887-10.521-15.28-15.219z"/><path fill="#0f0" d="M163.495 4.99a160.85 160.85 0 00-9.78.374l-18.813 57a107.431 107.431 0 00-11.094 3.875c-1.116.463-2.22.972-3.313 1.47l14.625 32.25c.325-.148.673-.295 1-.438a70.46 70.46 0 011.25-.532c18.883-7.821 39.218-6.855 56.47 1l14.624-32.28a107.32 107.32 0 00-14.375-5.345l-18.812-57a155.948 155.948 0 00-11.782-.374z"/></svg>